<svg width="20" height="20" viewBox="0 0 20 20" fill="none" xmlns="http://www.w3.org/2000/svg">
<g clip-path="url(#clip0_246_542)">
<path d="M4.16667 10.0001H5C5.92047 10.0001 6.66667 9.25389 6.66667 8.33342V7.50008C6.66667 6.57961 7.41286 5.83341 8.33333 5.83341C9.25381 5.83341 10 6.57961 10 7.50008V12.5001C10 13.4206 10.7462 14.1667 11.6667 14.1667C12.5871 14.1667 13.3333 13.4206 13.3333 12.5001V11.6667C13.3333 10.7463 14.0795 10.0001 15 10.0001H15.8333M5 18.3334H15C16.8409 18.3334 18.3333 16.841 18.3333 15.0001V5.00008C18.3333 3.15913 16.8409 1.66675 15 1.66675H5C3.15905 1.66675 1.66667 3.15913 1.66667 5.00008V15.0001C1.66667 16.841 3.15905 18.3334 5 18.3334Z" stroke="#24292E" stroke-width="1.5" stroke-linecap="round"/>
</g>
<defs>
<clipPath id="clip0_246_542">
<rect width="20" height="20" fill="white"/>
</clipPath>
</defs>
</svg>
