<svg width="33" height="42" viewBox="0 0 33 42" fill="none" xmlns="http://www.w3.org/2000/svg">
<path d="M33 0.191837C32.9577 0.25568 32.899 0.29063 32.8757 0.34196C32.7098 0.708036 32.551 1.07733 32.3903 1.44581C32.1811 1.92553 31.9738 2.4061 31.7631 2.88512C31.3021 3.93324 30.8406 4.98114 30.3771 6.02814C29.903 7.09894 29.4219 8.16657 28.9518 9.23915C28.4258 10.4393 27.9127 11.6453 27.3865 12.8454C27.0629 13.5833 26.722 14.3134 26.3948 15.0496C25.9201 16.1176 25.4479 17.1867 24.9798 18.2577C24.5273 19.2931 24.0864 20.3337 23.6311 21.3677C23.2873 22.1483 22.9224 22.9194 22.5785 23.7C22.1041 24.7763 21.6376 25.8561 21.1734 26.9369C20.6253 28.2131 20.0807 29.4908 19.5395 30.7699C19.0543 31.9165 18.574 33.0651 18.0947 34.2142C17.6383 35.3084 17.187 36.4047 16.7313 37.4991C16.6556 37.6808 16.5692 37.8578 16.4659 38.085C16.1669 37.3704 15.8915 36.7106 15.6147 36.0515C15.3026 35.308 14.987 34.5661 14.6769 33.8218C14.3396 33.0122 14.0069 32.2006 13.6724 31.3898C13.3739 30.6664 13.0747 29.9433 12.7775 29.2193C12.5546 28.6765 12.341 28.1296 12.1116 27.5896C11.7413 26.7179 11.3617 25.8503 10.9856 24.9812C10.6665 24.2439 10.3505 23.5053 10.0265 22.7703C9.71221 22.057 9.38584 21.3492 9.07141 20.636C8.68849 19.7674 8.31642 18.8939 7.93257 18.0257C7.44816 16.9303 6.95468 15.8389 6.46893 14.744C6.23586 14.2186 6.01372 13.6883 5.78267 13.162C5.48791 12.4906 5.18821 11.8215 4.89247 11.1506C4.59654 10.4792 4.30679 9.80502 4.0073 9.1353C3.63286 8.29795 3.24436 7.46695 2.8745 6.62757C2.44374 5.64997 2.03042 4.66452 1.60214 3.68576C1.30456 3.00571 0.991246 2.33268 0.691258 1.65368C0.509422 1.24212 0.341704 0.824212 0.162573 0.41139C0.127368 0.330276 0.0689202 0.259445 0.0105938 0.198507C0 0.142256 0 0.071353 0 0.000225091C2.77198 3.20162e-09 5.54395 0 8.33595 0.0163496C8.48218 0.329171 8.61456 0.623157 8.73352 0.922565C9.25211 2.22757 9.76238 3.53594 10.2842 4.83961C10.7745 6.06463 11.279 7.28387 11.7706 8.50829C12.1486 9.4494 12.513 10.396 12.8896 11.3377C13.188 12.0838 13.4989 12.8249 13.7985 13.5706C14.2383 14.6654 14.6718 15.7629 15.1102 16.8584C15.4447 17.6942 15.7828 18.5285 16.1191 19.3635C16.2654 19.7269 16.4113 20.0904 16.573 20.4928C16.6153 20.3956 16.6442 20.3345 16.6688 20.2718C16.8078 19.9169 16.9438 19.5608 17.0848 19.2067C17.4381 18.3187 17.7964 17.4327 18.1473 16.5437C18.5898 15.4227 19.021 14.297 19.4681 13.1778C19.9615 11.9423 20.4721 10.7139 20.9666 9.47881C21.3891 8.42371 21.7954 7.36204 22.2162 6.30627C22.6569 5.20056 23.1055 4.09808 23.5522 2.9948C23.8249 2.32105 24.1043 1.65002 24.3731 0.974673C24.5009 0.653513 24.6108 0.325119 24.7289 0C27.4859 0 30.243 3.94485e-09 33 0.000214861V0.191837Z" fill="#29BEC4"/>
<path d="M4.71439 35.5012C5.13838 34.7837 5.74326 34.2888 6.43529 33.8834C7.47315 33.2753 8.5889 32.8745 9.7539 32.6135C10.5428 32.4367 11.3393 32.2938 12.1338 32.1441C12.3909 32.0956 12.6528 32.0733 12.9068 32.0397C13.2728 32.934 13.6292 33.8049 13.9824 34.6679C13.4341 34.7232 12.9076 34.7617 12.3856 34.8333C11.9094 34.8986 11.4361 34.9905 10.9648 35.087C10.149 35.2543 9.35093 35.488 8.58219 35.8122C8.11167 36.0106 7.65561 36.2424 7.26662 36.5843C6.81892 36.9778 6.98434 37.1456 7.31009 37.4068C7.85395 37.8431 8.48184 38.1334 9.14906 38.3206C10.0069 38.5612 10.8652 38.807 11.7353 38.9942C12.3202 39.12 12.9246 39.1609 13.5224 39.2163C14.1521 39.2747 14.7838 39.3166 15.4156 39.3448C16.0522 39.3733 16.6909 39.4042 17.3269 39.3828C18.0206 39.3595 18.7119 39.2703 19.4051 39.2226C20.448 39.1509 21.4721 38.9646 22.4827 38.7058C23.4257 38.4644 24.35 38.1622 25.1835 37.639C25.3769 37.5176 25.5469 37.3497 25.7045 37.1811C25.8593 37.0154 25.797 36.8224 25.5614 36.6156C25.0966 36.2078 24.5544 35.9329 23.9825 35.7296C23.3686 35.5114 22.7448 35.3128 22.1129 35.157C21.5262 35.0123 20.9246 34.9261 20.3269 34.8316C19.889 34.7624 19.4468 34.7217 18.9773 34.6647C19.0756 34.4194 19.1745 34.1651 19.2793 33.9132C19.5068 33.3658 19.7464 32.8234 19.9616 32.2712C20.0344 32.0841 20.141 32.0259 20.3185 32.0596C20.8979 32.1697 21.4752 32.2912 22.0563 32.391C22.9036 32.5364 23.7207 32.791 24.5259 33.0832C25.663 33.4961 26.7416 34.0134 27.5894 34.9241C28.0219 35.3889 28.2945 35.9285 28.3999 36.556C28.539 37.3845 28.2891 38.1102 27.8101 38.7676C27.4646 39.2416 27.0076 39.5908 26.5206 39.9076C25.9362 40.2876 25.3098 40.5803 24.6531 40.7916C23.867 41.0445 23.0703 41.2703 22.2674 41.4615C21.7129 41.5934 21.1413 41.6572 20.5749 41.7323C19.9494 41.8152 19.322 41.8869 18.6936 41.9429C18.2971 41.9783 17.8974 41.9856 17.499 41.9888C16.6834 41.9954 15.8669 42.0125 15.0522 41.9841C14.3589 41.9599 13.6667 41.8874 12.9757 41.8187C12.3988 41.7613 11.8206 41.7002 11.2497 41.6012C10.6157 41.4913 9.98367 41.3588 9.36145 41.1948C8.80066 41.0471 8.23881 40.8811 7.70529 40.6558C6.96848 40.3447 6.24855 39.9939 5.62088 39.4709C5.06638 39.0089 4.64316 38.4615 4.41769 37.7756C4.29548 37.4038 4.24931 37.0082 4.33165 36.6169C4.38954 36.3417 4.47475 36.0717 4.55918 35.8031C4.59118 35.7013 4.65514 35.6098 4.71439 35.5012Z" fill="#29BEC4"/>
</svg>
