<svg width="11" height="3" viewBox="0 0 11 3" fill="none" xmlns="http://www.w3.org/2000/svg">
<path fill-rule="evenodd" clip-rule="evenodd" d="M0.416626 1.72496C0.416626 2.30025 0.882996 2.76662 1.45829 2.76662C2.03359 2.76662 2.49996 2.30025 2.49996 1.72496C2.49996 1.14966 2.03359 0.683289 1.45829 0.683289C0.882996 0.683289 0.416626 1.14966 0.416626 1.72496ZM5.62496 2.76662C5.04966 2.76662 4.58329 2.30025 4.58329 1.72496C4.58329 1.14966 5.04966 0.683289 5.62496 0.683289C6.20025 0.683289 6.66662 1.14966 6.66662 1.72496C6.66662 2.30025 6.20025 2.76662 5.62496 2.76662ZM9.79163 2.76662C9.21633 2.76662 8.74996 2.30025 8.74996 1.72496C8.74996 1.14966 9.21633 0.683289 9.79163 0.683289C10.3669 0.683289 10.8333 1.14966 10.8333 1.72496C10.8333 2.30025 10.3669 2.76662 9.79163 2.76662Z" fill="#596066"/>
</svg>
