<svg width="20" height="20" viewBox="0 0 20 20" fill="none" xmlns="http://www.w3.org/2000/svg">
<path fill-rule="evenodd" clip-rule="evenodd" d="M3.97674 9.67442C3.97674 12.8212 6.52768 15.3721 9.67442 15.3721C12.8212 15.3721 15.3721 12.8212 15.3721 9.67442C15.3721 6.52768 12.8212 3.97674 9.67442 3.97674C6.52768 3.97674 3.97674 6.52768 3.97674 9.67442ZM9.67442 16.3488C5.98824 16.3488 3 13.3606 3 9.67442C3 5.98824 5.98824 3 9.67442 3C13.3606 3 16.3488 5.98824 16.3488 9.67442C16.3488 11.3417 15.7375 12.8662 14.7267 14.036L16.857 16.1663C17.0477 16.357 17.0477 16.6662 16.857 16.857C16.6662 17.0477 16.357 17.0477 16.1663 16.857L14.036 14.7267C12.8662 15.7375 11.3417 16.3488 9.67442 16.3488Z" fill="#596066"/>
</svg>
