<svg width="20" height="20" viewBox="0 0 20 20" fill="none" xmlns="http://www.w3.org/2000/svg">
<g clip-path="url(#clip0_246_539)">
<circle cx="10" cy="9.99992" r="1.66667" fill="#24292E"/>
<path d="M10 10.0001L18.3333 1.66675M15 10.0001C15 12.7615 12.7614 15.0001 10 15.0001C7.23858 15.0001 5 12.7615 5 10.0001C5 7.23866 7.23858 5.00008 10 5.00008C12.7614 5.00008 15 7.23866 15 10.0001ZM18.3333 10.0001C18.3333 14.6025 14.6024 18.3334 10 18.3334C5.39763 18.3334 1.66667 14.6025 1.66667 10.0001C1.66667 5.39771 5.39763 1.66675 10 1.66675C14.6024 1.66675 18.3333 5.39771 18.3333 10.0001Z" stroke="#24292E" stroke-width="1.5" stroke-linecap="round"/>
</g>
<defs>
<clipPath id="clip0_246_539">
<rect width="20" height="20" fill="white"/>
</clipPath>
</defs>
</svg>
