<svg width="16" height="16" viewBox="0 0 16 16" fill="none" xmlns="http://www.w3.org/2000/svg">
<path fill-rule="evenodd" clip-rule="evenodd" d="M0.6875 11.75C0.6875 13.7175 2.28249 15.3125 4.25 15.3125L11.75 15.3125C13.7175 15.3125 15.3125 13.7175 15.3125 11.75L15.3125 8.75C15.3125 6.78248 13.7175 5.1875 11.75 5.1875L11.375 5.1875C11.0643 5.1875 10.8125 5.43934 10.8125 5.75C10.8125 6.06066 11.0643 6.3125 11.375 6.3125L11.75 6.3125C13.0962 6.3125 14.1875 7.4038 14.1875 8.75L14.1875 11.75C14.1875 13.0962 13.0962 14.1875 11.75 14.1875L4.25 14.1875C2.90381 14.1875 1.8125 13.0962 1.8125 11.75L1.8125 8.75C1.8125 7.40381 2.90381 6.3125 4.25 6.3125L4.625 6.3125C4.93566 6.3125 5.1875 6.06066 5.1875 5.75C5.1875 5.43934 4.93566 5.1875 4.625 5.1875L4.25 5.1875C2.28249 5.1875 0.6875 6.78249 0.6875 8.75L0.6875 11.75ZM5.35225 3.10225C5.13258 3.32192 5.13258 3.67808 5.35225 3.89775C5.57192 4.11742 5.92808 4.11742 6.14775 3.89775L7.4375 2.60799L7.4375 10.25C7.4375 10.5607 7.68934 10.8125 8 10.8125C8.31066 10.8125 8.5625 10.5607 8.5625 10.25L8.5625 2.60799L9.85225 3.89775C10.0719 4.11742 10.4281 4.11742 10.6477 3.89775C10.8674 3.67808 10.8674 3.32192 10.6477 3.10225L8.39775 0.852251C8.17808 0.632581 7.82192 0.632581 7.60225 0.852251L5.35225 3.10225Z" fill="#24292E"/>
</svg>
